<svg width="63" height="64" viewBox="0 0 63 64" fill="none" xmlns="http://www.w3.org/2000/svg">
<g id="group_24px">
<path id="icon/social/group_24px" fill-rule="evenodd" clip-rule="evenodd" d="M23.6631 31.5628C28.6424 31.5628 32.6929 27.4488 32.6929 22.3915C32.6929 17.3342 28.6424 13.2203 23.6631 13.2203C18.6838 13.2203 14.6333 17.3342 14.6333 22.3915C14.6333 27.4488 18.6838 31.5628 23.6631 31.5628ZM5.60352 45.3197C5.60352 39.2143 17.6261 36.1484 23.6631 36.1484C29.7002 36.1484 41.7228 39.2143 41.7228 45.3197V49.9053H5.60352V45.3197ZM23.6633 41.3892C19.0452 41.3892 13.8079 43.1448 11.6407 44.6646H35.6858C33.5187 43.1448 28.2814 41.3892 23.6633 41.3892ZM27.5331 22.3915C27.5331 20.2166 25.8045 18.461 23.6631 18.461C21.5218 18.461 19.7932 20.2166 19.7932 22.3915C19.7932 24.5664 21.5218 26.3221 23.6631 26.3221C25.8045 26.3221 27.5331 24.5664 27.5331 22.3915ZM41.826 36.3058C44.8188 38.5069 46.8827 41.4417 46.8827 45.3198V49.9054H57.2025V45.3198C57.2025 40.0267 48.1727 37.0133 41.826 36.3058ZM48.1726 22.3915C48.1726 27.4488 44.1221 31.5628 39.1428 31.5628C37.7496 31.5628 36.4597 31.2222 35.2729 30.6457C36.8983 28.3136 37.8528 25.4574 37.8528 22.3915C37.8528 19.3257 36.8983 16.4695 35.2729 14.1374C36.4597 13.5609 37.7496 13.2203 39.1428 13.2203C44.1221 13.2203 48.1726 17.3342 48.1726 22.3915Z" fill="white"/>
</g>
</svg>
