<?xml version="1.0"?>
<svg xmlns="http://www.w3.org/2000/svg" xmlns:xlink="http://www.w3.org/1999/xlink" xmlns:svgjs="http://svgjs.com/svgjs" version="1.1" width="512" height="512" x="0" y="0" viewBox="0 0 512 512" style="enable-background:new 0 0 512 512" xml:space="preserve" class=""><g>
<g xmlns="http://www.w3.org/2000/svg">
	<g>
		<path d="M418.534,329.723h-41.116c1.434-3.395,2.228-7.124,2.228-11.035V193.312c0-15.687-12.763-28.45-28.45-28.45h-22.54    c1.434-3.395,2.228-7.124,2.228-11.035V28.45c0-15.687-12.763-28.45-28.45-28.45H177.058c-15.687,0-28.45,12.763-28.45,28.45    v125.376c0,15.687,12.763,28.45,28.45,28.45h22.54c-1.434,3.395-2.228,7.124-2.228,11.035v125.376    c0,3.911,0.794,7.641,2.228,11.035H93.466c-15.687,0-28.45,12.763-28.45,28.45V483.55c0,15.687,12.763,28.45,28.45,28.45h125.376    c15.687,0,28.45-12.763,28.45-28.45V358.174c0-3.911-0.794-7.641-2.228-11.035h21.871c-1.434,3.395-2.228,7.124-2.228,11.035    V483.55c0,15.687,12.763,28.45,28.45,28.45h125.376c15.687,0,28.45-12.763,28.45-28.45V358.174    C446.984,342.486,434.221,329.723,418.534,329.723z M177.058,164.862c-6.085,0-11.035-4.951-11.035-11.035V28.45    c0-6.085,4.951-11.035,11.035-11.035h125.376c6.085,0,11.035,4.951,11.035,11.035v125.376c0,6.085-4.951,11.035-11.035,11.035    H225.82H177.058z M229.878,483.55c0,6.085-4.951,11.035-11.035,11.035H93.466c-6.085,0-11.035-4.951-11.035-11.035V358.174    c0-6.085,4.951-11.035,11.035-11.035h125.376c6.085,0,11.035,4.951,11.035,11.035V483.55z M225.82,329.723    c-6.085,0-11.035-4.951-11.035-11.035V193.312c0-6.085,4.951-11.035,11.035-11.035h125.376c6.085,0,11.035,4.951,11.035,11.035    v125.376c0,6.085-4.951,11.035-11.035,11.035H225.82z M429.569,483.55c0,6.085-4.951,11.035-11.035,11.035H293.158    c-6.085,0-11.035-4.951-11.035-11.035V358.174c0-6.085,4.951-11.035,11.035-11.035h125.376c6.085,0,11.035,4.951,11.035,11.035    V483.55z" fill="#e26890" data-original="#000000" style="" class=""/>
	</g>
</g>
<g xmlns="http://www.w3.org/2000/svg">
	<g>
		<path d="M239.746,33.671c-19.685,0-35.7,16.015-35.7,35.7v70.527c0,4.809,3.899,8.708,8.708,8.708    c4.809,0,8.707-3.899,8.707-8.708v-33.086h36.569v33.086c0,4.809,3.899,8.708,8.707,8.708c4.809,0,8.708-3.899,8.708-8.708V69.371    C275.446,49.686,259.431,33.671,239.746,33.671z M258.031,89.397h-36.569V69.371c0-10.082,8.202-18.285,18.285-18.285    s18.285,8.202,18.285,18.285V89.397z" fill="#e26890" data-original="#000000" style="" class=""/>
	</g>
</g>
<g xmlns="http://www.w3.org/2000/svg">
	<g>
		<path d="M315.5,269.06c-4.809,0-8.707,3.899-8.707,8.707c0,10.082-8.202,18.285-18.285,18.285s-18.285-8.202-18.285-18.285    v-43.535c0-10.082,8.202-18.285,18.285-18.285s18.285,8.202,18.285,18.285c0,4.809,3.899,8.708,8.707,8.708    c4.809,0,8.708-3.899,8.708-8.708c0-19.685-16.015-35.7-35.7-35.7s-35.7,16.015-35.7,35.7v43.535c0,19.685,16.015,35.7,35.7,35.7    s35.7-16.015,35.7-35.7C324.207,272.959,320.309,269.06,315.5,269.06z" fill="#e26890" data-original="#000000" style="" class=""/>
	</g>
</g>
<g xmlns="http://www.w3.org/2000/svg">
	<g>
		<path d="M156.154,363.395h-26.992c-4.809,0-8.708,3.899-8.708,8.707v97.519c0,4.809,3.899,8.708,8.708,8.708h26.992    c19.685,0,35.7-16.015,35.7-35.7v-43.535C191.854,379.409,175.839,363.395,156.154,363.395z M174.439,442.629    c0,10.082-8.202,18.285-18.285,18.285H137.87V380.81h18.285c10.082,0,18.285,8.202,18.285,18.285V442.629z" fill="#e26890" data-original="#000000" style="" class=""/>
	</g>
</g>
<g xmlns="http://www.w3.org/2000/svg">
	<g>
		<path d="M377.844,413.932c3.16-5.07,4.993-11.049,4.993-17.451c0-18.245-14.843-33.088-33.088-33.088h-29.605    c-4.809,0-8.708,3.899-8.708,8.708v97.524c0,4.809,3.899,8.707,8.708,8.707h47.023c18.245,0,33.088-14.843,33.088-33.088    C400.255,430.734,390.864,418.384,377.844,413.932z M328.851,380.807h20.898c8.642,0,15.673,7.031,15.673,15.673    s-7.031,15.673-15.673,15.673h-20.898V380.807z M367.167,460.916h-38.315v-31.347h20.898h17.417    c8.642,0,15.673,7.031,15.673,15.673C382.84,453.885,375.809,460.916,367.167,460.916z" fill="#e26890" data-original="#000000" style="" class=""/>
	</g>
</g>
<g xmlns="http://www.w3.org/2000/svg">
</g>
<g xmlns="http://www.w3.org/2000/svg">
</g>
<g xmlns="http://www.w3.org/2000/svg">
</g>
<g xmlns="http://www.w3.org/2000/svg">
</g>
<g xmlns="http://www.w3.org/2000/svg">
</g>
<g xmlns="http://www.w3.org/2000/svg">
</g>
<g xmlns="http://www.w3.org/2000/svg">
</g>
<g xmlns="http://www.w3.org/2000/svg">
</g>
<g xmlns="http://www.w3.org/2000/svg">
</g>
<g xmlns="http://www.w3.org/2000/svg">
</g>
<g xmlns="http://www.w3.org/2000/svg">
</g>
<g xmlns="http://www.w3.org/2000/svg">
</g>
<g xmlns="http://www.w3.org/2000/svg">
</g>
<g xmlns="http://www.w3.org/2000/svg">
</g>
<g xmlns="http://www.w3.org/2000/svg">
</g>
</g></svg>
